<?xml version="1.0" standalone="no"?> <!DOCTYPE svg PUBLIC "-//W3C//DTD SVG 1.0//EN" "http://www.w3.org/TR/2001/REC-SVG-20010904/DTD/svg10.dtd" > <svg xmlns="http://www.w3.org/2000/svg" width="100%" height="100%">
<defs >
<font id="Vegur-Regular" horiz-adv-x="417" ><font-face
    font-family="Vegur"
    units-per-em="1000"
    panose-1="0 0 0 0 0 0 0 0 0 0"
    ascent="750"
    descent="-250"
    alphabetic="0" />
<missing-glyph horiz-adv-x="364" d="M33 0V666H298V0H33ZM66 33H265V633H66V33Z" />
<glyph unicode=" " glyph-name="space" horiz-adv-x="222" />
<glyph unicode="!" glyph-name="exclam" horiz-adv-x="212" d="M161 68T161 45T145 6T106 -10T68 6T51 45T67 84T106 100T144 84ZM142 182H70L64 654H148L142 182Z" />
<glyph unicode="&quot;" glyph-name="quotedbl" horiz-adv-x="339" d="M115 441H61L51 664Q50 675 59 679T90 684H142L115 441ZM265 441H211L201 664Q200 675 209 679T240 684H292L265 441Z" />
<glyph unicode="#" glyph-name="numbersign" horiz-adv-x="494" d="M453 367H358L336 261H431V219H328L287 20H237L278 219H178L137 20H87L128 219H41V261H136L158 367H63V409H166L207 608H257L216 409H316L357 608H407L366 409H453V367ZM286 261L308 367H208L186
261H286Z" />
<glyph unicode="$" glyph-name="dollar" horiz-adv-x="468" d="M400 185Q400 120 359 77T247 23V-75H191V20Q130 21 65 45L73 109Q147 84 207 84Q259 84 287 108T315 173Q315 209 297 233T218 293Q134 342 101 381T68 470Q68 523 103 558T198 604V703H254V608Q312
605 364 582L356 518Q294 544 238 544Q201 544 177 527T153 480Q153 441 171 421T257 360Q338 313 369 275T400 185Z" />
<glyph unicode="%" glyph-name="percent" horiz-adv-x="782" d="M526 330T595 330T706 281T749 160T707 40T595 -10T484 39T441 160T483 280ZM558 46T595 46T653 78T675 160T654 242T595 274T537 242T515 160T536 78ZM118 638T187 638T298 589T341 468T299 348T187
298T76 347T33 468T75 588ZM150 354T187 354T245 386T267 468T246 550T187 582T129 550T107 468T128 386ZM582 648H640L200 -20H142L582 648Z" />
<glyph unicode="&amp;" glyph-name="ampersand" horiz-adv-x="620" d="M612 0H507L456 63H454Q371 -10 254 -10Q167 -10 103 38T38 171Q38 233 75 278T195 376V378Q165 407 140 448T114 528Q114 588 158 626T266 664Q333 664 375 630T418 542Q418 446 300 369V367L459
178H461Q495 238 498 336H576Q571 219 505 123L612 0ZM265 600Q236 600 219 582T202 533Q202 487 257 419H259Q333 466 333 532Q333 564 315 582T265 600ZM261 54Q346 54 410 116V118L235 328H233Q174 292 150 257T126 177Q126 120 164 87T261 54Z" />
<glyph unicode="&apos;" glyph-name="quotesingle" horiz-adv-x="189" d="M115 441H61L51 664Q50 675 59 679T90 684H142L115 441Z" />
<glyph unicode="(" glyph-name="parenleft" horiz-adv-x="258" d="M140 501T140 297T239 -94H183Q66 108 66 297T183 688H239Q140 501 140 297Z" />
<glyph unicode=")" glyph-name="parenright" horiz-adv-x="258" d="M118 93T118 297T19 688H75Q192 486 192 297T75 -94H19Q118 93 118 297Z" />
<glyph unicode="*" glyph-name="asterisk" horiz-adv-x="426" d="M214 435H212L135 308L79 349L177 461V463L31 496L53 563L190 504H192L178 654H248L234 504H236L373 563L395 496L249 463V461L347 349L290 308L214 435Z" />
<glyph unicode="+" glyph-name="plus" horiz-adv-x="586" d="M328 284H540V228H328V0H258V228H46V284H258V512H328V284Z" />
<glyph unicode="," glyph-name="comma" horiz-adv-x="207" d="M80 57Q87 84 121 84H174Q136 -32 82 -152L11 -165Q50 -50 80 57Z" />
<glyph unicode="-" glyph-name="hyphen" horiz-adv-x="307" d="M271 284V228H36V284H271Z" />
<glyph unicode="." glyph-name="period" horiz-adv-x="198" d="M82 100T105 100T144 84T160 45T144 6T105 -10T66 6T50 45T66 84Z" />
<glyph unicode="/" glyph-name="slash" horiz-adv-x="367" d="M299 680H372L68 -37H-5L299 680Z" />
<glyph unicode="0" glyph-name="zero" horiz-adv-x="550" d="M164 638T275 638T446 550T507 314T447 79T275 -10T104 78T43 314T103 549ZM206 54T275 54T380 121T417 314T381 506T275 574T170 507T133 314T169 122Z" />
<glyph unicode="1" glyph-name="one" horiz-adv-x="467" d="M289 628H329V0H249V526L150 489L142 553L289 628Z" />
<glyph unicode="2" glyph-name="two" horiz-adv-x="467" d="M422 64V0H27V53L151 200Q263 329 292 378T322 477Q322 574 201 574Q137 574 75 539L67 603Q134 638 220 638Q308 638 360 597T412 488Q412 427 373 363T204 150L130 66V64H422Z" />
<glyph unicode="3" glyph-name="three" horiz-adv-x="450" d="M177 -10Q90 -10 33 18L41 82Q105 54 186 54Q241 54 278 86T315 168Q315 289 150 300V364Q214 369 254 401T295 483Q295 574 186 574Q121 574 57 541L51 605Q117 638 210 638Q286 638 334 599T383
497Q383 397 254 349V347Q403 298 403 178Q403 96 339 43T177 -10Z" />
<glyph unicode="4" glyph-name="four" horiz-adv-x="503" d="M404 224H482V160H404V0H324V160H26V222L319 628H404V224ZM117 224H324V390Q324 458 327 531H325Q289 463 240 393L117 226V224Z" />
<glyph unicode="5" glyph-name="five" horiz-adv-x="465" d="M209 399Q305 399 362 347T420 209Q420 112 352 51T177 -10Q93 -10 32 19L40 83Q110 54 186 54Q252 54 292 93T332 199Q332 263 299 299T200 335Q152 335 116 317L55 323L70 628H371V564H141L133 388H135Q172
399 209 399Z" />
<glyph unicode="6" glyph-name="six" horiz-adv-x="493" d="M251 -10Q155 -10 99 66T43 267Q43 431 144 532T383 638L391 574Q285 569 209 495T127 324H129Q182 385 266 385T405 330T461 200Q461 111 401 51T251 -10ZM251 321Q200 321 165 293T129 222Q129 146
164 100T259 54Q312 54 342 91T373 188Q373 254 339 287T251 321Z" />
<glyph unicode="7" glyph-name="seven" horiz-adv-x="436" d="M413 628V572L155 0H74L329 562V564H21V628H413Z" />
<glyph unicode="8" glyph-name="eight" horiz-adv-x="494" d="M322 339Q393 300 423 260T454 170Q454 86 390 38T247 -10Q166 -10 103 33T40 157Q40 267 177 327V329Q120 359 93 395T65 483Q65 543 118 590T250 638Q330 638 382 594T435 490Q435 443 408 408T322
341V339ZM153 485Q153 449 175 423T252 366Q347 402 347 481Q347 524 322 549T250 574Q204 574 179 549T153 485ZM247 54Q302 54 334 83T366 162Q366 208 338 241T244 306Q128 261 128 167Q128 118 160 86T247 54Z" />
<glyph unicode="9" glyph-name="nine" horiz-adv-x="493" d="M242 638Q338 638 394 562T450 361Q450 197 349 96T110 -10L102 54Q208 59 284 133T366 304H364Q309 243 227 243Q143 243 88 298T32 428Q32 517 92 577T242 638ZM242 307Q293 307 328 335T364 406Q364
482 329 528T234 574Q181 574 151 537T120 440Q120 374 154 341T242 307Z" />
<glyph unicode=":" glyph-name="colon" horiz-adv-x="198" d="M128 384T105 384T66 400T50 439T66 478T105 494T144 478T160 439T144 400ZM82 100T105 100T144 84T160 45T144 6T105 -10T66 6T50 45T66 84Z" />
<glyph unicode=";" glyph-name="semicolon" horiz-adv-x="217" d="M152 384T129 384T90 400T74 439T90 478T129 494T168 478T184 439T168 400ZM80 57Q87 84 121 84H174Q136 -32 82 -152L11 -165Q50 -50 80 57Z" />
<glyph unicode="&lt;" glyph-name="less" horiz-adv-x="459" d="M110 254L412 92V14L42 215V292L412 493V417L110 256V254Z" />
<glyph unicode="=" glyph-name="equal" horiz-adv-x="596" d="M544 334H52V390H544V334ZM544 122H52V178H544V122Z" />
<glyph unicode="&gt;" glyph-name="greater" horiz-adv-x="459" d="M349 253L47 415V493L417 292V215L47 14V90L349 251V253Z" />
<glyph unicode="?" glyph-name="question" horiz-adv-x="366" d="M196 22T196 45T180 84T141 100T102 84T86 45T102 6T141 -10T180 6ZM328 527Q328 453 251 365Q209 317 195 287T181 216V182H101V207Q101 262 121 306T188 402Q243 463 243 515Q243 552 219 575T150
599Q92 599 29 559L21 623Q86 664 160 664Q235 664 281 626T328 527Z" />
<glyph unicode="@" glyph-name="at" horiz-adv-x="813" d="M488 588Q612 588 693 506T775 315Q775 196 718 123T580 50Q540 50 513 71T481 135H479Q425 43 336 43Q290 43 255 79T220 166Q220 282 292 356T483 431Q538 431 593 407L545 202Q521 96 596 96Q639 96
675 155T712 295Q712 400 649 471T472 542Q382 542 300 499T164 376T111 197Q111 73 182 0T363 -74Q459 -74 561 -22L565 -68Q471 -120 355 -120Q222 -120 135 -37T48 185Q48 306 110 399T271 540T488 588ZM491 266L514 366Q490 375 462 375Q394 375 344 320T294
176Q294 139 311 119T356 99Q404 99 439 146T491 266Z" />
<glyph unicode="A" glyph-name="A" horiz-adv-x="570" d="M472 0L400 208H160L88 0H10L243 654H324L557 0H472ZM183 272H378L358 327Q314 454 281 562H279Q233 417 202 327L183 272Z" />
<glyph unicode="B" glyph-name="B" horiz-adv-x="532" d="M363 347Q494 299 494 196Q494 104 422 47T243 -10Q163 -10 70 0V654Q177 664 257 664Q352 664 411 619T471 503Q471 406 363 349V347ZM150 594V366Q200 363 253 363Q309 363 345 396T381 489Q381 600
238 600Q194 600 150 594ZM252 54Q320 54 362 89T404 187Q404 243 366 274T257 305Q178 305 150 302V60Q201 54 252 54Z" />
<glyph unicode="C" glyph-name="C" horiz-adv-x="545" d="M38 325Q38 483 129 573T361 664Q453 664 523 641L515 577Q441 600 371 600Q259 600 194 527T128 327Q128 196 193 125T371 54Q441 54 515 77L523 13Q453 -10 361 -10Q219 -10 129 79T38 325Z" />
<glyph unicode="D" glyph-name="D" horiz-adv-x="637" d="M70 654Q147 664 239 664Q405 664 502 577T599 342Q599 187 494 89T239 -10Q143 -10 70 0V654ZM150 594V60Q200 54 239 54Q357 54 433 131T509 337Q509 455 441 527T240 600Q196 600 150 594Z" />
<glyph unicode="E" glyph-name="E" horiz-adv-x="450" d="M150 64H425V0H70V654H416V590H150V370H382V306H150V64Z" />
<glyph unicode="F" glyph-name="F" horiz-adv-x="428" d="M150 0H70V654H423V590H150V363H381V299H150V0Z" />
<glyph unicode="G" glyph-name="G" horiz-adv-x="642" d="M492 72V275H356V339H572V22Q476 -10 365 -10Q218 -10 128 77T38 324Q38 481 133 572T390 664Q484 664 555 641L547 577Q464 600 384 600Q261 600 195 527T128 327Q128 186 193 120T370 54Q436 54 492 72Z" />
<glyph unicode="H" glyph-name="H" horiz-adv-x="643" d="M493 654H573V0H493V309H150V0H70V654H150V373H493V654Z" />
<glyph unicode="I" glyph-name="I" horiz-adv-x="200" d="M140 0H60V654H140V0Z" />
<glyph unicode="J" glyph-name="J" horiz-adv-x="401" d="M343 242Q343 120 286 55T125 -10Q72 -10 23 0L31 64Q72 54 118 54Q263 54 263 243V654H343V242Z" />
<glyph unicode="K" glyph-name="K" horiz-adv-x="542" d="M509 654L255 357L538 0H436L203 299H201L150 239V0H70V654H150V330H152Q201 398 272 484L411 654H509Z" />
<glyph unicode="L" glyph-name="L" horiz-adv-x="487" d="M150 64H469V0H70V654H150V64Z" />
<glyph unicode="M" glyph-name="M" horiz-adv-x="785" d="M713 654L718 0H638L635 392Q635 508 637 555H635Q612 487 574 392L428 25H345L201 392Q161 497 143 551H141Q143 506 143 392L140 0H64L69 654H178L306 327Q350 218 389 106H391Q423 197 475 327L605 654H713Z" />
<glyph unicode="N" glyph-name="N" horiz-adv-x="652" d="M585 654V0H477L266 354Q194 474 142 573H140Q143 474 143 354V0H67V654H175L386 300Q458 180 510 81H512Q509 180 509 300V654H585Z" />
<glyph unicode="O" glyph-name="O" horiz-adv-x="712" d="M219 664T356 664T583 570T674 327T584 85T356 -10T129 84T38 327T128 569ZM254 54T356 54T521 127T584 327T521 526T356 600T191 527T128 327T191 128Z" />
<glyph unicode="P" glyph-name="P" horiz-adv-x="484" d="M150 595V342Q189 335 239 335Q299 335 338 370T378 475Q378 534 341 567T238 600Q195 600 150 595ZM70 0V654Q170 664 239 664Q348 664 408 613T468 482Q468 390 400 331T238 271Q195 271 152 279H150V0H70Z" />
<glyph unicode="Q" glyph-name="Q" horiz-adv-x="712" d="M674 327Q674 232 635 157T527 38L591 -105H503L455 5Q408 -10 356 -10Q219 -10 129 84T38 327T128 569T356 664T583 570T674 327ZM254 54T356 54T521 127T584 327T521 526T356 600T191 527T128 327T191 128Z" />
<glyph unicode="R" glyph-name="R" horiz-adv-x="518" d="M150 595V348Q194 345 238 345Q304 345 343 382T383 481Q383 600 243 600Q200 600 150 595ZM70 0V654Q180 664 248 664Q351 664 412 616T473 494Q473 441 438 397T351 330V328Q388 309 406 284T441 192Q464
102 500 0H408Q387 69 357 192Q345 243 320 265T243 287Q204 287 150 284V0H70Z" />
<glyph unicode="S" glyph-name="S" horiz-adv-x="439" d="M41 496Q41 570 95 617T241 664Q304 664 362 640L354 576Q290 600 234 600Q186 600 158 575T129 510Q129 470 154 440T246 371Q330 322 366 279T403 177Q403 92 341 41T184 -10Q108 -10 43 13L51 77Q123
54 185 54Q243 54 279 84T315 163Q315 202 292 233T206 302Q41 397 41 496Z" />
<glyph unicode="T" glyph-name="T" horiz-adv-x="530" d="M517 654V590H305V0H225V590H13V654H517Z" />
<glyph unicode="U" glyph-name="U" horiz-adv-x="585" d="M530 233Q530 119 464 55T294 -10Q193 -10 126 51T58 214V654H138V224Q138 142 179 98T294 54Q371 54 412 98T454 224V654H530V233Z" />
<glyph unicode="V" glyph-name="V" horiz-adv-x="571" d="M483 654H561L328 0H246L13 654H98L212 327Q253 213 290 92H292Q338 237 369 327L483 654Z" />
<glyph unicode="W" glyph-name="W" horiz-adv-x="871" d="M783 654H861L669 0H588L496 327Q462 440 437 551H435Q415 463 377 327L285 0H204L12 654H96L188 327Q233 168 247 102H249Q267 184 307 327L399 654H480L572 327Q616 170 630 102H633Q651 184 691 327L783 654Z" />
<glyph unicode="X" glyph-name="X" horiz-adv-x="506" d="M480 654L295 338L493 0H401L249 275H247L96 0H10L205 333L17 654H109L251 396H253L394 654H480Z" />
<glyph unicode="Y" glyph-name="Y" horiz-adv-x="513" d="M418 654H503L300 295V0H220V288L13 654H105L261 364H263L418 654Z" />
<glyph unicode="Z" glyph-name="Z" horiz-adv-x="490" d="M113 64H472V0H28V68L363 588V590H63V654H448V586L113 66V64Z" />
<glyph unicode="[" glyph-name="bracketleft" horiz-adv-x="274" d="M250 624H150V-31H250V-87H80V680H250V624Z" />
<glyph unicode="\" glyph-name="backslash" horiz-adv-x="369" d="M70 680L374 -37H299L-5 680H70Z" />
<glyph unicode="]" glyph-name="bracketright" horiz-adv-x="274" d="M24 624V680H194V-87H24V-31H124V624H24Z" />
<glyph unicode="^" glyph-name="asciicircum" horiz-adv-x="531" d="M303 632L486 242H412L267 560H265L121 242H45L228 632H303Z" />
<glyph unicode="_" glyph-name="underscore" horiz-adv-x="492" d="M492 -108H0V-52H492V-108Z" />
<glyph unicode="`" glyph-name="grave" horiz-adv-x="232" d="M31 684H97Q111 684 120 669Q160 595 204 530L132 525Q82 594 31 684Z" />
<glyph unicode="a" glyph-name="a" horiz-adv-x="480" d="M244 494Q324 494 370 448T417 326V0H340L337 70H335Q283 -10 190 -10Q128 -10 82 31T36 144Q36 223 92 272T234 321Q280 321 335 311H337V317Q337 430 234 430Q164 430 102 397L94 461Q162 494 244 494ZM337
195V249Q286 257 234 257Q186 257 158 228T129 150Q129 106 152 80T215 54Q265 54 301 94T337 195Z" />
<glyph unicode="b" glyph-name="b" horiz-adv-x="571" d="M313 494Q410 494 469 425T529 246T469 63T313 -10Q214 -10 157 70H155L152 0H75V700H155V414H157Q214 494 313 494ZM295 54Q364 54 401 106T439 242Q439 322 402 376T295 430Q237 430 196 391T155 289V195Q155
133 196 94T295 54Z" />
<glyph unicode="c" glyph-name="c" horiz-adv-x="448" d="M293 -10Q181 -10 112 57T42 238Q42 354 110 424T293 494Q363 494 415 474L407 410Q345 430 297 430Q219 430 176 381T132 242Q132 153 177 104T297 54Q341 54 403 71L411 7Q357 -10 293 -10Z" />
<glyph unicode="d" glyph-name="d" horiz-adv-x="571" d="M416 700H496V0H419L416 70H414Q357 -10 258 -10Q161 -10 102 59T42 238T102 421T258 494Q357 494 414 414H416V700ZM416 195V289Q416 351 375 390T276 430Q206 430 169 378T132 242Q132 161 169 108T276
54Q334 54 375 93T416 195Z" />
<glyph unicode="e" glyph-name="e" horiz-adv-x="501" d="M461 297Q461 258 457 233H126Q130 146 171 100T289 54Q349 54 410 79L418 15Q348 -10 285 -10Q175 -10 109 61T42 242Q42 347 106 420T273 494Q357 494 409 437T461 297ZM271 430Q212 430 177 393T130
297H378Q378 359 352 394T271 430Z" />
<glyph unicode="f" glyph-name="f" horiz-adv-x="325" d="M110 518Q110 609 151 659T269 710Q313 710 339 703L331 639Q298 646 271 646Q190 646 190 523V484H306V420H190V0H110V420H26V484H110V518Z" />
<glyph unicode="g" glyph-name="g" horiz-adv-x="569" d="M419 484H496V30Q496 -99 429 -162T253 -226Q171 -226 93 -191L101 -127Q170 -162 258 -162Q331 -162 373 -115T416 25V70H414Q357 -10 258 -10Q161 -10 102 59T42 238T102 421T258 494Q357 494 414 414H416L419
484ZM416 195V289Q416 351 375 390T276 430Q206 430 169 378T132 242Q132 161 169 108T276 54Q334 54 375 93T416 195Z" />
<glyph unicode="h" glyph-name="h" horiz-adv-x="547" d="M155 414H157Q220 494 324 494Q400 494 442 445T484 308V0H404V289Q404 361 379 395T297 430Q241 430 198 391T155 289V0H75V700H155V414Z" />
<glyph unicode="i" glyph-name="i" horiz-adv-x="230" d="M75 0V484H155V0H75ZM136 572T115 572T80 586T65 622T79 657T115 672T150 658T165 622T151 587Z" />
<glyph unicode="j" glyph-name="j" horiz-adv-x="242" d="M148 572T127 572T92 586T77 622T91 657T127 672T162 658T177 622T163 587ZM87 -40V484H167V-28Q167 -124 119 -175T-11 -226L-19 -162Q31 -162 59 -131T87 -40Z" />
<glyph unicode="k" glyph-name="k" horiz-adv-x="476" d="M447 484L251 266L474 0H370L198 210H196L155 163V0H75V700H155V255H157Q190 301 242 363L347 484H447Z" />
<glyph unicode="l" glyph-name="l" horiz-adv-x="230" d="M155 0H75V700H155V0Z" />
<glyph unicode="m" glyph-name="m" horiz-adv-x="811" d="M597 494Q671 494 709 445T748 312V0H668V303Q668 369 646 399T574 430Q519 430 485 384T450 266V0H370V303Q370 430 275 430Q218 430 187 385T155 265V0H75V484H152L155 414H157Q213 494 299 494Q393
494 433 396H435Q491 494 597 494Z" />
<glyph unicode="n" glyph-name="n" horiz-adv-x="547" d="M155 414H157Q220 494 324 494Q400 494 442 445T484 308V0H404V289Q404 361 379 395T297 430Q241 430 198 391T155 289V0H75V484H152L155 414Z" />
<glyph unicode="o" glyph-name="o" horiz-adv-x="558" d="M173 494T279 494T450 423T516 242T451 61T279 -10T108 61T42 242T107 423ZM210 54T279 54T388 108T428 242T388 376T279 430T170 376T130 242T170 108Z" />
<glyph unicode="p" glyph-name="p" horiz-adv-x="571" d="M155 -216H75V484H152L155 414H157Q214 494 313 494Q410 494 469 425T529 246T469 63T313 -10Q214 -10 157 70H155V-216ZM155 289V195Q155 133 196 94T295 54Q364 54 401 106T439 242Q439 322 402 376T295
430Q237 430 196 391T155 289Z" />
<glyph unicode="q" glyph-name="q" horiz-adv-x="571" d="M258 -10Q161 -10 102 59T42 238T102 421T258 494Q357 494 414 414H416L419 484H496V-216H416V70H414Q357 -10 258 -10ZM276 430Q206 430 169 378T132 242Q132 161 169 108T276 54Q334 54 375 93T416 195V289Q416
351 375 390T276 430Z" />
<glyph unicode="r" glyph-name="r" horiz-adv-x="306" d="M294 494V420Q155 420 155 233V0H75V484H152L155 396H157Q202 494 294 494Z" />
<glyph unicode="s" glyph-name="s" horiz-adv-x="379" d="M174 210Q105 240 75 272T44 354Q44 415 88 454T210 494Q264 494 317 471L309 407Q263 430 200 430Q166 430 148 413T129 368Q129 337 146 319T210 279Q281 248 310 216T340 135Q340 69 291 30T163 -10Q96
-10 37 18L45 82Q107 54 163 54Q208 54 231 72T255 122Q255 152 238 171T174 210Z" />
<glyph unicode="t" glyph-name="t" horiz-adv-x="334" d="M296 484V420H185V139Q185 95 198 75T240 54Q268 54 291 62L299 -2Q253 -10 218 -10Q105 -10 105 111V420H26V484H105V604H185V484H296Z" />
<glyph unicode="u" glyph-name="u" horiz-adv-x="542" d="M392 70H390Q327 -10 223 -10Q147 -10 105 39T63 176V484H143V195Q143 123 167 89T250 54Q306 54 349 93T392 195V484H472V0H395L392 70Z" />
<glyph unicode="v" glyph-name="v" horiz-adv-x="473" d="M385 484H465L274 0H185L10 484H95L179 242Q210 157 232 76H234Q259 153 293 242L385 484Z" />
<glyph unicode="w" glyph-name="w" horiz-adv-x="745" d="M657 484H735L582 0H500L421 242Q401 302 375 406H373Q350 314 326 242L246 0H165L12 484H96L168 242Q194 155 209 82H211Q230 160 256 242L336 484H417L497 242Q528 146 542 82H544Q564 172 585 242L657 484Z" />
<glyph unicode="x" glyph-name="x" horiz-adv-x="477" d="M448 484L283 252L462 0H364L235 196H233L103 0H13L188 246L19 484H117L236 302H238L358 484H448Z" />
<glyph unicode="y" glyph-name="y" horiz-adv-x="473" d="M274 0Q226 -122 171 -172T33 -226L25 -162Q89 -158 122 -126T190 -13L10 484H95L179 242Q210 157 232 76H234Q259 153 293 242L385 484H465L274 0Z" />
<glyph unicode="z" glyph-name="z" horiz-adv-x="438" d="M126 64H394V0H37V64L288 418V420H56V484H377V420L126 66V64Z" />
<glyph unicode="{" glyph-name="braceleft" horiz-adv-x="293" d="M155 530L169 431Q176 379 158 349T92 301V299Q138 282 156 250T167 163L153 64Q146 8 173 -16T269 -40V-96Q169 -96 122 -57T86 64L99 158Q108 220 93 242T29 269V325Q77 330 92 352T99 436L86
530Q74 611 122 650T269 690V634Q202 634 175 610T155 530Z" />
<glyph unicode="|" glyph-name="bar" horiz-adv-x="230" d="M150 -250H80V750H150V-250Z" />
<glyph unicode="}" glyph-name="braceright" horiz-adv-x="293" d="M137 64L124 163Q117 215 135 245T201 293V295Q155 312 137 344T126 431L139 530Q147 586 120 610T24 634V690Q123 690 171 651T207 530L194 436Q185 374 200 352T264 325V269Q216 264 201 242T194
158L207 64Q219 -18 172 -57T24 -96V-40Q91 -40 118 -16T137 64Z" />
<glyph unicode="~" glyph-name="asciitilde" horiz-adv-x="578" d="M276 225Q164 271 139 271Q92 271 91 204H35Q35 265 66 300T151 335Q185 335 302 287Q414 241 439 241Q486 241 487 308H543Q543 247 512 212T427 177Q390 177 276 225Z" />
<glyph unicode="&#x2018;" glyph-name="quoteleft" horiz-adv-x="222" d="M125 462Q117 435 84 435H31Q71 555 123 671L194 684Q155 569 125 462Z" />
<glyph unicode="&#x2019;" glyph-name="quoteright" horiz-adv-x="222" d="M97 657Q104 684 138 684H191Q153 568 99 448L28 435Q67 550 97 657Z" />
<glyph unicode="&#x201c;" glyph-name="quotedblleft" horiz-adv-x="377" d="M280 462Q272 435 239 435H186Q226 555 278 671L349 684Q310 569 280 462ZM125 462Q117 435 84 435H31Q71 555 123 671L194 684Q155 569 125 462Z" />
<glyph unicode="&#x201d;" glyph-name="quotedblright" horiz-adv-x="377" d="M97 657Q104 684 138 684H191Q153 568 99 448L28 435Q67 550 97 657ZM252 657Q259 684 293 684H346Q308 568 254 448L183 435Q222 550 252 657Z" />
</font>
</defs>
</svg>
