<?xml version="1.0" standalone="no"?> <!DOCTYPE svg PUBLIC "-//W3C//DTD SVG 1.0//EN" "http://www.w3.org/TR/2001/REC-SVG-20010904/DTD/svg10.dtd" > <svg xmlns="http://www.w3.org/2000/svg" width="100%" height="100%">
<defs >
<font id="Vegur-Medium" horiz-adv-x="885" ><font-face
    font-family="Vegur"
    units-per-em="2048"
    panose-1="0 0 0 0 0 0 0 0 0 0"
    ascent="1536"
    descent="-512"
    alphabetic="0" />
<missing-glyph horiz-adv-x="503" />
<glyph unicode=" " glyph-name="space" horiz-adv-x="442" />
<glyph unicode="!" glyph-name="exclam" horiz-adv-x="548" d="M145 55T145 109T182 200T274 238T365 201T403 109T366 18T274 -20T183 17ZM156 1389H393L377 389H172L156 1389Z" />
<glyph unicode="&quot;" glyph-name="quotedbl" horiz-adv-x="718" d="M98 1370Q98 1403 123 1422T184 1442H303L264 909H106L98 1370ZM430 1370Q430 1403 455 1422T516 1442H635L596 909H438L430 1370Z" />
<glyph unicode="#" glyph-name="numbersign" horiz-adv-x="1056" d="M80 424V547H272L313 799H133V922H334L391 1276H532L475 922H662L719 1276H860L803 922H977V799H782L741 547H924V424H723L664 72H524L582 424H395L336 72H197L254 424H80ZM414 547H600L641
799H455L414 547Z" />
<glyph unicode="$" glyph-name="dollar" horiz-adv-x="1116" d="M160 135L184 322Q331 244 492 244Q594 244 651 286T709 393Q709 468 666 509Q623 549 498 594Q339 651 261 731T182 950Q182 1074 265 1157T473 1266V1485H641V1274Q795 1267 881 1206L858 1028Q810
1058 739 1077T602 1096Q525 1096 476 1063T426 973Q426 913 462 873T586 801Q791 728 870 650Q950 572 950 446Q950 303 861 202T616 72V-137H449V59Q290 66 160 135Z" />
<glyph unicode="%" glyph-name="percent" horiz-adv-x="1744" d="M115 869T115 1020T209 1269T453 1368T696 1270T791 1020T697 771T453 672T210 770ZM315 1108T315 1020T350 886T453 840T555 886T590 1020T555 1154T453 1200T351 1154ZM317 -41L1260 1409H1427L485
-41H317ZM954 177T954 328T1048 577T1292 676T1535 578T1630 328T1536 79T1292 -20T1049 78ZM1155 416T1155 328T1190 194T1292 147T1394 193T1430 328T1395 462T1292 508T1190 462Z" />
<glyph unicode="&amp;" glyph-name="ampersand" horiz-adv-x="1464" d="M84 367Q84 462 124 539T234 673T416 791V795Q331 880 289 948T246 1100Q246 1232 358 1320T623 1409Q781 1409 884 1321T987 1112Q987 1004 917 915T735 760V756L1042 412H1047Q1127 537
1133 688H1358Q1352 567 1300 438T1184 246L1409 0H1102L1022 102H1018Q868 -20 582 -20Q483 -20 394 5T235 78T125 200T84 367ZM334 385Q334 283 408 223T602 162Q687 162 767 184T897 248V252L547 657H543Q428 594 381 538T334 385ZM492 1110Q492 1055 523 1005T612
897H616Q684 952 712 993T741 1090Q741 1155 707 1194T616 1233Q561 1233 527 1202T492 1110Z" />
<glyph unicode="&apos;" glyph-name="quotesingle" horiz-adv-x="387" d="M98 1370Q98 1403 123 1422T184 1442H303L264 909H106L98 1370Z" />
<glyph unicode="(" glyph-name="parenleft" horiz-adv-x="628" d="M152 402T152 629T217 1074T377 1450H545Q352 1022 352 629Q352 235 545 -193H377Q282 -35 217 183Z" />
<glyph unicode=")" glyph-name="parenright" horiz-adv-x="628" d="M84 -193Q276 233 276 629Q276 1024 84 1450H252Q347 1292 412 1074T477 629T412 184T252 -193H84Z" />
<glyph unicode="*" glyph-name="asterisk" horiz-adv-x="1019" d="M104 1018L160 1194L449 1063H453L418 1380H602L567 1063H571L860 1194L915 1018L604 954V950L817 715L670 608L512 883H508L350 608L203 715L416 950V954L104 1018Z" />
<glyph unicode="+" glyph-name="plus" horiz-adv-x="1220" d="M102 442V610H518V1049H702V610H1118V442H702V0H518V442H102Z" />
<glyph unicode="," glyph-name="comma" horiz-adv-x="483" d="M-8 -338Q54 -141 125 123Q134 159 169 182T254 205H379Q289 -60 184 -311L-8 -338Z" />
<glyph unicode="-" glyph-name="hyphen" horiz-adv-x="782" d="M129 442V610H653V442H129Z" />
<glyph unicode="." glyph-name="period" horiz-adv-x="466" d="M104 55T104 109T141 200T233 238T324 201T362 109T325 18T233 -20T142 17Z" />
<glyph unicode="/" glyph-name="slash" horiz-adv-x="821" d="M-10 -76L631 1434H831L190 -76H-10Z" />
<glyph unicode="0" glyph-name="zero" horiz-adv-x="1114" d="M47 482T47 674T105 1021T280 1272T557 1368T833 1273T1009 1022T1067 674T1009 327T834 76T557 -20T281 75T105 326ZM297 906T297 674T365 302T557 162Q679 162 748 302T817 674T748 1046T557 1186Q434
1186 366 1046Z" />
<glyph unicode="1" glyph-name="one" horiz-adv-x="1114" d="M211 1192L608 1348H721V0H496V1106L233 1014L211 1192Z" />
<glyph unicode="2" glyph-name="two" horiz-adv-x="1114" d="M98 0V186L276 371L398 498L493 600Q547 659 571 690T625 761T665 830T684 890T692 954Q692 1060 633 1123T453 1186Q319 1186 178 1114L154 1294Q329 1368 483 1368Q703 1368 822 1264T942 995Q942
930 924 867T876 748T787 620T672 486L518 326L385 186V182H969V0H98Z" />
<glyph unicode="3" glyph-name="three" horiz-adv-x="1114" d="M106 55L129 233Q289 162 453 162Q584 162 659 218T735 373Q735 462 651 524T414 594V768Q543 777 620 841T698 999Q698 1084 635 1135T471 1186Q344 1186 215 1120L193 1298Q355 1368 528 1368Q711
1368 829 1277T948 1042Q948 923 863 840T651 719V715Q798 688 891 600T985 385Q985 195 834 88T442 -20Q241 -20 106 55Z" />
<glyph unicode="4" glyph-name="four" horiz-adv-x="1114" d="M39 303V489L659 1348H903V485H1106V303H903V0H678V303H39ZM293 485H678V696Q678 932 684 1061H680Q537 816 293 489V485Z" />
<glyph unicode="5" glyph-name="five" horiz-adv-x="1114" d="M100 68L123 246Q308 162 465 162Q591 162 673 230T756 422Q756 527 697 592T526 657Q427 657 350 608L158 614L180 1348H922V1165H383L373 799H379Q473 840 567 840Q768 840 887 733T1006 440Q1006
225 852 103T455 -20Q363 -20 266 4T100 68Z" />
<glyph unicode="6" glyph-name="six" horiz-adv-x="1114" d="M78 524Q78 665 119 792T236 1019T412 1194T635 1314T889 1368L911 1190Q691 1165 544 1053T332 739H336Q389 800 459 834T604 868Q804 868 922 751T1040 453Q1040 346 999 256T890 106T733 13T551
-20Q336 -20 207 128T78 524ZM326 442Q326 318 393 240T561 162Q656 162 722 232T788 422Q788 543 724 614T551 686Q453 686 390 619T326 442Z" />
<glyph unicode="7" glyph-name="seven" horiz-adv-x="1114" d="M127 1165V1348H1012V1159L489 0H260L788 1161V1165H127Z" />
<glyph unicode="8" glyph-name="eight" horiz-adv-x="1114" d="M94 348Q94 467 173 552T377 690V694Q267 754 213 831T158 1016Q158 1117 217 1198T374 1324T584 1368Q764 1368 877 1270T991 1028Q991 834 756 709V705Q1018 567 1018 373Q1018 295 993 230T923
120T818 42T691 -5T551 -20Q459 -20 378 3T233 70T132 185T94 348ZM336 373Q336 277 401 217T559 156Q655 156 715 209T776 358Q776 435 724 497T553 621Q336 530 336 373ZM399 1030Q399 954 440 896T575 793Q750 882 750 1014Q750 1085 701 1138T575 1192Q502
1192 451 1145T399 1030Z" />
<glyph unicode="9" glyph-name="nine" horiz-adv-x="1114" d="M74 895Q74 1002 115 1092T224 1242T381 1335T563 1368Q778 1368 907 1220T1036 823Q1036 682 995 555T878 328T702 153T479 34T225 -20L203 158Q656 210 782 608H778Q725 547 655 513T510 479Q310
479 192 596T74 895ZM326 926Q326 805 390 734T563 662Q661 662 724 729T788 905Q788 1029 721 1107T553 1186Q458 1186 392 1116T326 926Z" />
<glyph unicode=":" glyph-name="colon" horiz-adv-x="466" d="M104 55T104 109T141 200T233 238T324 201T362 109T325 18T233 -20T142 17ZM104 829T104 883T141 974T233 1012T324 975T362 883T325 792T233 754T142 791Z" />
<glyph unicode=";" glyph-name="semicolon" horiz-adv-x="507" d="M-8 -338Q54 -141 125 123Q134 159 169 182T254 205H379Q289 -60 184 -311L-8 -338ZM145 829T145 883T182 974T274 1012T365 975T403 883T366 792T274 754T183 791Z" />
<glyph unicode="&lt;" glyph-name="less" horiz-adv-x="983" d="M74 416V623L864 1024V817L260 524V518L864 221V14L74 416Z" />
<glyph unicode="=" glyph-name="equal" horiz-adv-x="1345" d="M152 219V387H1194V219H152ZM152 662V829H1194V662H152Z" />
<glyph unicode="&gt;" glyph-name="greater" horiz-adv-x="983" d="M119 14V221L723 518V524L119 817V1024L909 623V416L119 14Z" />
<glyph unicode="?" glyph-name="question" horiz-adv-x="888" d="M63 1341Q208 1409 401 1409Q581 1409 693 1316T805 1083Q805 983 756 898T569 653Q508 583 487 536Q465 488 465 420V389H242V422Q242 529 271 594T389 762Q487 876 517 927Q549 982 549 1049Q549
1129 492 1178T338 1227Q214 1227 86 1163L63 1341ZM197 141Q197 209 244 256T358 303Q426 303 473 256T520 141T473 27T358 -20T244 27T197 141Z" />
<glyph unicode="@" glyph-name="at" horiz-adv-x="1804" d="M123 342Q123 504 171 645T305 889T504 1066T750 1177T1024 1214Q1153 1214 1268 1169T1464 1047T1592 869T1640 655Q1640 402 1524 252T1225 102Q1057 102 1018 244H1014Q907 88 750 88Q640 88 567
171T494 383Q494 606 626 744T979 883Q1038 883 1125 868T1260 834L1192 377Q1170 225 1278 225Q1372 225 1436 328T1501 596Q1501 818 1361 959T975 1100Q834 1100 704 1047T477 902T321 678T262 395Q262 148 413 -9T795 -166Q910 -166 1006 -143T1206 -66L1221
-178Q1113 -233 1001 -257T741 -281Q578 -281 437 -200T209 26T123 342ZM694 416Q694 256 823 256Q897 256 951 314T1022 483L1053 700Q1002 715 944 715Q832 715 763 635T694 416Z" />
<glyph unicode="A" glyph-name="A" horiz-adv-x="1261" d="M35 0L518 1389H748L1231 0H993L852 424H397L256 0H35ZM451 606H797Q676 981 629 1182H623Q566 949 451 606Z" />
<glyph unicode="B" glyph-name="B" horiz-adv-x="1132" d="M141 12V1372Q346 1399 516 1399Q753 1399 881 1305T1010 1044Q1010 934 937 852T762 739V735Q893 708 970 628T1047 420Q1047 215 890 103T475 -10Q307 -10 141 12ZM367 178Q450 172 524 172Q652 172
724 227T797 395Q797 506 723 565T508 625H367V178ZM367 799H518Q635 799 697 853T760 1008Q760 1109 697 1163T518 1217Q450 1217 367 1206V799Z" />
<glyph unicode="C" glyph-name="C" horiz-adv-x="1267" d="M70 680Q70 846 127 984T286 1215T524 1358T819 1409Q1055 1409 1223 1343L1198 1159Q1130 1189 1029 1208T836 1227Q600 1227 460 1088T319 694T452 301T811 162Q1002 162 1169 236L1196 47Q1024 -20
782 -20Q572 -20 413 58T162 296T70 680Z" />
<glyph unicode="D" glyph-name="D" horiz-adv-x="1433" d="M141 8V1376Q369 1399 569 1399Q949 1399 1156 1225T1364 719Q1364 575 1317 454T1189 248T1003 104T781 18T543 -10Q326 -10 141 8ZM367 178Q458 172 563 172Q677 172 775 204T949 298T1070 462T1114
694Q1114 945 969 1081T565 1217Q444 1217 367 1208V178Z" />
<glyph unicode="E" glyph-name="E" horiz-adv-x="1024" d="M156 0V1389H930V1204H381V807H860V625H381V182H948V0H156Z" />
<glyph unicode="F" glyph-name="F" horiz-adv-x="974" d="M156 0V1389H930V1204H381V788H860V606H381V0H156Z" />
<glyph unicode="G" glyph-name="G" horiz-adv-x="1384" d="M70 684Q70 852 126 989T283 1218T519 1359T813 1409Q1040 1409 1208 1343L1184 1159Q1115 1190 1017 1208T829 1227Q593 1227 456 1091T319 694Q319 438 449 305T801 172Q922 172 1024 199V547H766V729H1249V61Q1029
-10 780 -10Q625 -10 497 33T273 162T124 380T70 684Z" />
<glyph unicode="H" glyph-name="H" horiz-adv-x="1415" d="M141 0V1389H367V807H1053V1389H1274V0H1053V625H367V0H141Z" />
<glyph unicode="I" glyph-name="I" horiz-adv-x="507" d="M141 0V1389H367V0H141Z" />
<glyph unicode="J" glyph-name="J" horiz-adv-x="806" d="M-8 8L16 188Q93 162 190 162Q326 162 389 241T453 479V1389H678V496Q678 355 641 253T536 93T380 7T182 -20Q69 -20 -8 8Z" />
<glyph unicode="K" glyph-name="K" horiz-adv-x="1153" d="M141 0V1389H367V772H375L895 1389H1180L600 758L1204 0H915L455 596H449L367 506V0H141Z" />
<glyph unicode="L" glyph-name="L" horiz-adv-x="1013" d="M141 0V1389H367V174H991V0H141Z" />
<glyph unicode="M" glyph-name="M" horiz-adv-x="1691" d="M119 0L166 1389H434L702 670Q797 415 840 250H846Q907 463 985 670L1257 1389H1526L1573 0H1348L1325 670Q1316 956 1339 1108H1333Q1319 1026 1279 900T1198 670L946 41H721L471 670Q361 958 342 1098H336Q358
928 350 670L328 0H119Z" />
<glyph unicode="N" glyph-name="N" horiz-adv-x="1427" d="M135 0V1389H416L819 756L924 590Q961 530 1016 430T1094 262H1100Q1083 416 1083 635V1339H1292V0H1032L631 633L603 677L572 727L542 776L508 830L477 882Q455 918 444 938L416 990Q397 1023 386 1046L362
1098Q348 1126 338 1151H332Q344 879 344 705V0H135Z" />
<glyph unicode="O" glyph-name="O" horiz-adv-x="1523" d="M70 524T70 694T129 1002T286 1228T506 1362T762 1409T1017 1362T1238 1228T1395 1003T1454 694T1395 386T1238 160T1018 27T762 -20T507 26T286 160T129 385ZM319 950T319 694T441 300T762 162T1082
300T1204 694T1083 1088T762 1227T441 1089Z" />
<glyph unicode="P" glyph-name="P" horiz-adv-x="1077" d="M156 0V1368Q361 1399 516 1399Q768 1399 906 1292T1044 989Q1044 841 968 731T771 568T504 514Q428 514 381 518V0H156ZM381 702Q448 696 502 696Q560 696 610 710T703 755T770 839T795 965Q795 1088
723 1152T522 1217Q446 1217 381 1206V702Z" />
<glyph unicode="Q" glyph-name="Q" horiz-adv-x="1523" d="M70 524T70 694T129 1002T286 1228T506 1362T762 1409T1017 1362T1238 1228T1395 1003T1454 694Q1454 450 1338 280T1036 33L1110 -258L893 -313L823 -14Q793 -20 762 -20Q629 -20 507 26T286 160T129
385ZM319 950T319 694T441 300T762 162T1082 300T1204 694T1083 1088T762 1227T441 1089Z" />
<glyph unicode="R" glyph-name="R" horiz-adv-x="1105" d="M141 0V1356Q316 1397 545 1397Q777 1397 909 1304T1042 1036Q1042 966 1018 908T951 808T861 739T758 692V688Q841 654 893 582Q945 511 969 393Q1010 193 1073 0H821Q786 123 731 381Q710 479 658 529T510
580H367V0H141ZM367 754H510Q642 754 717 817T793 1004Q793 1107 721 1160T524 1214Q421 1214 367 1202V754Z" />
<glyph unicode="S" glyph-name="S" horiz-adv-x="1040" d="M80 33L104 217Q258 162 434 162Q563 162 641 217T719 377Q719 463 669 512T494 606Q297 677 209 766Q119 856 119 1016Q119 1134 185 1225T358 1362T596 1409Q804 1409 915 1360L891 1180Q781 1227 608
1227Q501 1227 432 1181T362 1049T416 910Q468 859 582 817Q685 779 751 745T867 665T939 559T961 418Q961 221 815 101T432 -20Q239 -20 80 33Z" />
<glyph unicode="T" glyph-name="T" horiz-adv-x="1060" d="M-6 1204V1389H1067V1204H641V0H416V1204H-6Z" />
<glyph unicode="U" glyph-name="U" horiz-adv-x="1277" d="M129 446V1389H354V467Q354 316 435 239T645 162Q785 162 862 236T940 467V1389H1149V485Q1149 361 1110 264T1002 105T841 12T639 -20Q493 -20 378 37T196 200T129 446Z" />
<glyph unicode="V" glyph-name="V" horiz-adv-x="1185" d="M2 1389H240L442 776Q563 410 604 211H610Q655 416 774 776L977 1389H1198L715 0H485L2 1389Z" />
<glyph unicode="W" glyph-name="W" horiz-adv-x="1835" d="M6 1389H242L424 721Q491 475 537 244H543Q592 503 647 719L819 1389H1044L1219 721Q1281 481 1321 246H1327Q1367 469 1436 721L1622 1389H1839L1423 0H1198L1020 666Q960 896 926 1094H920Q881 867
825 668L647 0H422L6 1389Z" />
<glyph unicode="X" glyph-name="X" horiz-adv-x="1103" d="M2 0L424 705L12 1389H283L551 881H555L825 1389H1075L674 719L1106 0H836L545 530H541L252 0H2Z" />
<glyph unicode="Y" glyph-name="Y" horiz-adv-x="1112" d="M-2 1389H258L569 793H573L885 1389H1124L680 600V0H455V584L-2 1389Z" />
<glyph unicode="Z" glyph-name="Z" horiz-adv-x="1110" d="M59 0V190L770 1210V1214H123V1389H1024V1200L307 178V174H1063V0H59Z" />
<glyph unicode="[" glyph-name="bracketleft" horiz-adv-x="692" d="M178 -178V1434H625V1266H362V-10H625V-178H178Z" />
<glyph unicode="\" glyph-name="backslash" horiz-adv-x="821" d="M-10 1434H190L831 -76H631L-10 1434Z" />
<glyph unicode="]" glyph-name="bracketright" horiz-adv-x="692" d="M68 -10H330V1266H68V1434H514V-178H68V-10Z" />
<glyph unicode="^" glyph-name="asciicircum" horiz-adv-x="1150" d="M104 582L473 1380H678L1047 582H842L580 1184H573L309 582H104Z" />
<glyph unicode="_" glyph-name="underscore" horiz-adv-x="1169" d="M63 -96H1106V-264H63V-96Z" />
<glyph unicode="`" glyph-name="grave" horiz-adv-x="612" d="M57 1421H215Q261 1421 283 1382Q373 1223 467 1081L285 1073Q158 1248 57 1421Z" />
<glyph unicode="a" glyph-name="a" horiz-adv-x="1028" d="M70 301Q70 389 110 456T217 563T362 621T528 641Q590 641 672 629V651Q672 748 621 795T457 842Q335 842 201 784L178 954Q328 1016 500 1016Q695 1016 796 927T897 672V0H678L672 139H668Q579 -20 383
-20Q254 -20 162 69T70 301ZM315 313Q315 231 357 188T471 145Q558 145 615 223T672 430V487Q604 498 543 498Q445 498 380 452T315 313Z" />
<glyph unicode="b" glyph-name="b" horiz-adv-x="1208" d="M141 0V1475H367V860H371Q499 1016 696 1016Q897 1016 1015 878T1133 516Q1133 282 1008 131T684 -20Q580 -20 506 17T371 135H367L360 0H141ZM367 457Q367 315 439 235T627 154Q757 154 824 246T891
500Q891 659 823 750T623 842Q505 842 436 759T367 539V457Z" />
<glyph unicode="c" glyph-name="c" horiz-adv-x="968" d="M76 475Q76 726 227 871T618 1016Q709 1016 786 999T905 956L883 786Q769 842 641 842Q492 842 405 755T317 502Q317 333 399 244T625 154Q750 154 872 207L895 37Q778 -20 575 -20Q348 -20 212 116T76 475Z" />
<glyph unicode="d" glyph-name="d" horiz-adv-x="1208" d="M76 479Q76 714 201 865T524 1016Q626 1016 701 978T838 860H842V1475H1067V0H848L842 135H838Q710 -20 512 -20Q311 -20 194 118T76 479ZM317 496Q317 337 386 246T586 154Q704 154 773 237T842 457V539Q842
681 770 761T582 842Q452 842 385 750T317 496Z" />
<glyph unicode="e" glyph-name="e" horiz-adv-x="1054" d="M76 475Q76 712 217 864T573 1016Q697 1016 790 954T929 794T975 578Q975 493 967 436H307Q316 301 393 228T612 154Q750 154 879 211L901 41Q769 -20 571 -20Q345 -20 211 107T76 475ZM317 602H756Q745
842 555 842Q456 842 396 779T317 602Z" />
<glyph unicode="f" glyph-name="f" horiz-adv-x="745" d="M61 821V995H225V1022Q225 1242 342 1368T659 1495Q741 1495 819 1466L797 1300Q736 1321 674 1321Q568 1321 510 1250T451 1053V995H700V821H451V0H225V821H61Z" />
<glyph unicode="g" glyph-name="g" horiz-adv-x="1204" d="M76 487Q76 718 199 867T520 1016Q622 1016 697 978T834 860H838L844 995H1063V135Q1063 -9 1022 -116T905 -290T725 -389T492 -422Q315 -422 158 -350L180 -176Q343 -248 489 -248Q661 -248 749 -165T838
100V147H834Q706 -8 508 -8Q311 -8 194 129T76 487ZM317 504Q317 346 386 256T582 166Q700 166 769 249T838 469V539Q838 681 766 761T578 842Q451 842 384 753T317 504Z" />
<glyph unicode="h" glyph-name="h" horiz-adv-x="1142" d="M141 0V1475H367V850H371Q493 1016 686 1016Q841 1016 926 922T1012 659V0H786V549Q786 611 783 653T768 733T737 794T685 829T606 842Q500 842 434 754T367 528V0H141Z" />
<glyph unicode="i" glyph-name="i" horiz-adv-x="507" d="M121 1204T121 1260T159 1354T254 1393T348 1355T387 1260T348 1165T254 1126T160 1165ZM141 0V995H367V0H141Z" />
<glyph unicode="j" glyph-name="j" horiz-adv-x="538" d="M-115 -248Q-42 -235 6 -217T95 -163T153 -72T172 68V995H397V80Q397 -48 361 -142T258 -294T105 -382T-92 -422L-115 -248ZM152 1204T152 1260T191 1354T285 1393T379 1355T418 1260T379 1165T285 1126T191
1165Z" />
<glyph unicode="k" glyph-name="k" horiz-adv-x="1030" d="M141 0V1475H367V571H373L731 995H1022L612 578L1063 0H776L459 420H453L367 326V0H141Z" />
<glyph unicode="l" glyph-name="l" horiz-adv-x="507" d="M141 0V1475H367V0H141Z" />
<glyph unicode="m" glyph-name="m" horiz-adv-x="1697" d="M141 0V995H360L367 850H371Q476 1016 664 1016Q888 1016 942 809H948Q1053 1016 1264 1016Q1409 1016 1488 929T1567 678V0H1341V608Q1341 732 1304 787T1184 842Q1083 842 1025 749T967 487V0H741V608Q741
732 704 787T584 842Q484 842 426 747T367 487V0H141Z" />
<glyph unicode="n" glyph-name="n" horiz-adv-x="1142" d="M141 0V995H360L367 850H371Q493 1016 686 1016Q841 1016 926 922T1012 659V0H786V549Q786 611 783 653T768 733T737 794T685 829T606 842Q500 842 434 754T367 528V0H141Z" />
<glyph unicode="o" glyph-name="o" horiz-adv-x="1138" d="M76 266T76 498T214 873T569 1016T924 873T1063 498T924 123T569 -20T215 123ZM317 663T317 498T383 244T569 154T754 243T821 498T755 752T569 842T384 753Z" />
<glyph unicode="p" glyph-name="p" horiz-adv-x="1208" d="M141 -401V995H360L367 860H371Q499 1016 696 1016Q897 1016 1015 878T1133 516Q1133 282 1008 131T684 -20Q580 -20 506 17T371 135H367V-401H141ZM367 457Q367 315 439 235T627 154Q757 154 824 246T891
500Q891 659 823 750T623 842Q505 842 436 759T367 539V457Z" />
<glyph unicode="q" glyph-name="q" horiz-adv-x="1208" d="M76 479Q76 714 201 865T524 1016Q626 1016 701 978T838 860H842L848 995H1067V-401H842V135H838Q710 -20 512 -20Q311 -20 194 118T76 479ZM317 496Q317 337 386 246T586 154Q704 154 773 237T842 457V539Q842
681 770 761T582 842Q452 842 385 750T317 496Z" />
<glyph unicode="r" glyph-name="r" horiz-adv-x="686" d="M141 0V995H360L367 799H371Q409 893 491 952T670 1016L664 793Q609 790 551 770Q492 749 454 712T392 596T367 393V0H141Z" />
<glyph unicode="s" glyph-name="s" horiz-adv-x="839" d="M72 33L94 205Q225 154 340 154Q427 154 473 183T520 268Q520 318 488 349T385 403Q324 422 282 443Q237 465 196 500T133 590T111 713Q111 844 211 930T473 1016Q627 1016 715 971L692 801Q599 842 496
842Q432 842 389 810T346 729Q346 676 373 647T463 598Q525 579 566 562T646 521T707 467T743 398T756 305Q756 202 701 127T557 16T356 -20Q181 -20 72 33Z" />
<glyph unicode="t" glyph-name="t" horiz-adv-x="765" d="M47 821V995H209V1221H434V995H680V821H434V295Q434 216 469 185T571 154Q629 154 684 172L707 6Q622 -20 487 -20Q359 -20 284 44T209 240V821H47Z" />
<glyph unicode="u" glyph-name="u" horiz-adv-x="1142" d="M131 336V995H356V446Q356 384 359 342T374 262T405 202T457 167T537 154Q642 154 709 241T776 467V995H1001V0H782L776 145H772Q651 -20 457 -20Q302 -20 217 73T131 336Z" />
<glyph unicode="v" glyph-name="v" horiz-adv-x="1013" d="M8 995H250L387 618Q459 420 516 201H522Q574 401 653 618L791 995H1016L627 0H395L8 995Z" />
<glyph unicode="w" glyph-name="w" horiz-adv-x="1572" d="M16 995H260L385 588Q435 425 479 211H485Q532 436 573 588L686 995H915L1028 588Q1078 404 1116 213H1122Q1163 412 1217 588L1341 995H1567L1225 0H991L881 399Q836 563 795 768H788Q738 516 705 399L592
0H358L16 995Z" />
<glyph unicode="x" glyph-name="x" horiz-adv-x="978" d="M2 0L365 500V506L14 995H289L489 668H496L702 995H956L608 518V512L971 0H698L483 350H477L256 0H2Z" />
<glyph unicode="y" glyph-name="y" horiz-adv-x="1013" d="M8 995H250L387 618Q459 420 516 201H522Q574 401 653 618L791 995H1016L618 -20Q536 -227 429 -314T123 -422L100 -248Q224 -232 286 -192T389 -49L401 -16L8 995Z" />
<glyph unicode="z" glyph-name="z" horiz-adv-x="903" d="M59 0V178L545 815V821H106V995H807V815L324 180V174H836V0H59Z" />
<glyph unicode="{" glyph-name="braceleft" horiz-adv-x="712" d="M135 545V713Q236 714 273 754T301 883L272 1126Q253 1294 355 1374T651 1454V1286Q546 1286 499 1243T461 1110L489 858Q510 656 301 631V627Q510 602 489 399L461 147Q451 57 498 14T651 -29V-197Q457
-197 355 -117T272 131L301 375Q310 464 273 503T135 545Z" />
<glyph unicode="|" glyph-name="bar" horiz-adv-x="540" d="M178 -512V1536H362V-512H178Z" />
<glyph unicode="}" glyph-name="braceright" horiz-adv-x="712" d="M61 -29Q165 -29 213 14T252 147L223 399Q202 602 412 627V631Q202 656 223 858L252 1110Q262 1199 214 1242T61 1286V1454Q254 1454 356 1374T440 1126L412 883Q403 793 439 754T578 713V545Q476
542 440 503T412 375L440 131Q459 -36 357 -116T61 -197V-29Z" />
<glyph unicode="~" glyph-name="asciitilde" horiz-adv-x="1417" d="M115 375Q115 542 189 623T397 705Q465 705 534 685T745 602Q896 535 944 518Q996 500 1028 500Q1135 500 1135 662H1303Q1303 494 1229 413T1020 332Q950 332 880 352T672 434Q517 501 468
519T389 537Q283 537 283 375H115Z" />
<glyph unicode="&#xa5;" glyph-name="yen" horiz-adv-x="1114" d="M86 1348H336L451 1071Q512 922 563 760H569Q615 913 680 1071L795 1348H1028L748 784H952V662H674V543H952V420H674V0H449V420H170V543H449V662H170V784H365L86 1348Z" />
<glyph unicode="&#x2018;" glyph-name="quoteleft" horiz-adv-x="626" d="M168 899Q262 1177 362 1415L555 1442Q468 1166 422 981Q413 945 378 922T293 899H168Z" />
<glyph unicode="&#x2019;" glyph-name="quoteright" horiz-adv-x="626" d="M72 899Q134 1096 205 1360Q214 1396 249 1419T334 1442H459Q369 1177 264 926L72 899Z" />
<glyph unicode="&#x201c;" glyph-name="quotedblleft" horiz-adv-x="993" d="M168 899Q262 1177 362 1415L555 1442Q468 1166 422 981Q413 945 378 922T293 899H168ZM535 899Q629 1177 729 1415L922 1442Q830 1150 788 981Q779 945 744 922T659 899H535Z" />
<glyph unicode="&#x201d;" glyph-name="quotedblright" horiz-adv-x="993" d="M72 899Q134 1096 205 1360Q214 1396 249 1419T334 1442H459Q369 1177 264 926L72 899ZM438 899Q500 1096 571 1360Q580 1396 615 1419T700 1442H825Q731 1164 631 926L438 899Z" />
</font>
</defs>
</svg>
